<?xml version="1.0" encoding="UTF-8" standalone="no"?>
<svg
   id="Layer_1"
   data-name="Layer 1"
   viewBox="0 0 512.43 512.58004"
   version="1.1"
   width="512.42999"
   height="512.58002"
   xmlns="http://www.w3.org/2000/svg"
   xmlns:svg="http://www.w3.org/2000/svg">
  <defs
     id="defs1">
    <style
       id="style1">
      .cls-1 {
        fill: #fff;
      }
    </style>
  </defs>
  <g
     id="g8"
     transform="matrix(4.2589391,0,0,4.2589391,-1399.3084,-156.53379)">
    <path
       class="cls-1"
       d="m 362.51,82.03 c 4.16,-1.18 8.72,-0.12 12.85,0.02 8.46,0.29 20.03,-1.07 20.53,11.12 0.12,2.93 -1.72,5.26 -2.67,7.84 3.7,-0.42 6.1,1.65 7.55,-2.61 4.01,-11.79 -6.02,-22.24 -17.71,-22.24 h -26.42 l -0.45,55.35 0.75,2.05 c 1.79,-0.26 4.22,0.63 5.57,-0.7 v -21.69 l 0.68,-0.68 h 15.8 l 17.38,22.37 c 1.07,1.44 8.08,1.81 7.68,0 L 388.7,112.29 h 25.51 l 0.68,0.68 v 25.75 c 0,1.41 -8.32,6.04 -9.92,6.79 -37.3,17.37 -71.03,-14.86 -58.92,-53.08 8.42,-26.58 38.56,-35.95 61.68,-21.09 1.2,0.77 5.51,4.6 6.43,4.33 0.88,-1.79 4.72,-3.79 3.68,-5.85 -0.58,-1.15 -10.06,-6.8 -11.82,-7.61 -14.66,-6.75 -33.65,-5.87 -47.42,2.57 -27.39,16.78 -30.11,62.35 -4.62,82.03 14.72,11.36 34.95,12.36 51.87,5.46 2.99,-1.22 5.83,-3.59 9.04,-3.83 v 7.45 c 0.68,1.03 5.76,0.89 6.35,0.48 l 0.42,-0.93 v -49.92 c 0,0 -59.15,-1.13 -59.15,-1.13 z"
       id="path1" />
    <path
       class="cls-1"
       d="m 428.88,65.54 -0.06,-25.49 c -4.52,-0.08 -4.6,-0.08 -6.6,-0.07 -2.29,0.02 -3.2,0.1 -7.15,0.09 -0.37,0 -1.09,0.27 -1.09,0.63 v 12.2 l -0.92,0.48 -21.21,-16.29 c -1.23,-0.75 -2.91,0.17 -2.04,1.59 l 49,38.17 v 80.19 h 2.26 V 75.49 l -12.19,-9.94 z m -2.71,-2.03 -9.93,-7.91 -0.06,-12.87 h 0.74 c 0,0 9.26,0 9.26,0 v 20.78 z"
       id="path2" />
    <path
       class="cls-1"
       d="m 387.92,86.87 c -0.56,-0.45 -1.13,-1.91 -2.15,-2.58 -1.34,-0.89 -3.78,-1.51 -5.38,-1.33 -0.97,0.11 -1.88,0.81 -2.79,0.85 -3.13,0.13 -4.83,-1.14 -8.09,1.38 -6.23,4.81 2.2,10.09 7.45,9.03 0.23,-1.35 -0.36,-0.71 -1.06,-0.95 -2.68,-0.9 -6.57,-1.89 -4.92,-5.71 1.44,-3.32 5.83,-3.55 8.91,-3.27 3.94,0.35 1.75,1.12 2.71,3.16 0.62,1.32 3.99,1.2 3.21,3.62 -0.84,2.61 -5.07,4.02 -7.5,4.28 3.89,3.47 13.61,-0.77 13.57,-5.89 -0.02,-2.43 -2.69,-1.58 -3.97,-2.59 z"
       id="path3" />
    <path
       class="cls-1"
       d="m 385.54,97.85 c -5.92,1.86 -10.04,-2.77 -15.8,-2.71 0.58,1.16 0.95,2.37 2.09,3.1 0.4,0.25 7.67,3.13 8.1,3.19 3.12,0.47 4.44,-0.92 5.62,-3.58 z"
       id="path4" />
    <path
       class="cls-1"
       d="m 377.86,90.16 c 1.59,0.61 2.92,0.57 4.51,0 0.45,-1.51 -0.87,-1.45 -1.21,-1.93 -1.06,-1.5 -0.88,-2.6 -3.53,-2.59 -7.21,0.04 -3.48,7.86 2.03,7.23 -0.91,-1.47 -3.38,-0.49 -3.98,-2.58 -1.08,-3.74 4.78,-3.44 4.43,-1.71 -0.21,1.04 -2.13,0.76 -2.25,1.58 z"
       id="path5" />
    <path
       class="cls-1"
       d="m 368.62,97.38 c -0.76,-1.15 -0.86,-2.72 -1.37,-4.05 -0.28,-0.73 -0.88,-2.36 -1.57,-2.71 -0.01,1.89 -0.73,5.87 0.23,7.21 1.24,1.74 4.86,3.04 6.99,2.72 -1.06,-1.55 -3.17,-1.49 -4.27,-3.17 z"
       id="path6" />
    <path
       class="cls-1"
       d="m 380.57,103.71 c -2.39,-2.5 -6.28,-2.5 -9.48,-1.8 2.38,3.08 6.1,3.14 9.48,1.8 z"
       id="path7" />
    <path
       class="cls-1"
       d="m 390.5,95.14 c -1.42,-0.09 -5.41,5.43 -4.96,5.87 2.67,-0.57 5.1,-3.08 4.96,-5.87 z"
       id="path8" />
  </g>
</svg>
