<?xml version="1.0" encoding="UTF-8" standalone="no"?>
<svg
   id="Layer_1"
   data-name="Layer 1"
   viewBox="0 0 511.99998 144.91224"
   version="1.1"
   width="511.99997"
   height="144.91225"
   xmlns="http://www.w3.org/2000/svg"
   xmlns:svg="http://www.w3.org/2000/svg">
  <defs
     id="defs1">
    <style
       id="style1">
      .cls-1 {
        fill: #283618;
      }

      .cls-2 {
        fill: none;
      }
    </style>
    <clipPath
       id="clippath">
      <rect
         class="cls-2"
         x="-2007.37"
         y="51.82"
         width="310.67001"
         height="108"
         id="rect1" />
    </clipPath>
  </defs>
  <g
     id="g65"
     transform="matrix(1.2054149,0,0,1.2054149,-11.372969,331.74057)">
    <g
       id="g8"
       transform="translate(-223.6351,-320.93089)">
      <path
         class="cls-1"
         d="m 579.25,90.93 c 4.16,-1.18 8.72,-0.12 12.85,0.02 8.46,0.29 20.03,-1.07 20.53,11.12 0.12,2.93 -1.72,5.26 -2.67,7.84 3.7,-0.42 6.1,1.65 7.55,-2.61 4.01,-11.79 -6.02,-22.24 -17.71,-22.24 h -26.42 l -0.45,55.35 0.75,2.05 c 1.79,-0.26 4.22,0.63 5.57,-0.7 v -21.69 l 0.68,-0.68 h 15.8 l 17.38,22.37 c 1.07,1.44 8.08,1.81 7.68,0 l -15.35,-20.57 h 25.51 l 0.68,0.68 v 25.75 c 0,1.41 -8.32,6.04 -9.92,6.79 -37.3,17.37 -71.03,-14.86 -58.92,-53.08 8.42,-26.58 38.56,-35.95 61.68,-21.09 1.2,0.77 5.51,4.6 6.43,4.33 0.88,-1.79 4.72,-3.79 3.68,-5.85 -0.58,-1.15 -10.06,-6.8 -11.82,-7.61 -14.66,-6.75 -33.65,-5.87 -47.42,2.57 -27.39,16.78 -30.11,62.35 -4.62,82.03 14.72,11.36 34.95,12.36 51.87,5.46 2.99,-1.22 5.83,-3.59 9.04,-3.83 v 7.45 c 0.68,1.03 5.76,0.89 6.35,0.48 l 0.42,-0.93 v -49.92 c 0,0 -59.15,-1.13 -59.15,-1.13 z"
         id="path1" />
      <path
         class="cls-1"
         d="m 645.63,74.44 -0.06,-25.49 c -4.52,-0.08 -4.6,-0.08 -6.6,-0.07 -2.29,0.02 -3.2,0.1 -7.15,0.09 -0.37,0 -1.09,0.27 -1.09,0.63 v 12.2 l -0.92,0.48 -21.21,-16.29 c -1.23,-0.75 -2.91,0.17 -2.04,1.59 l 49,38.17 v 80.19 h 2.26 V 84.39 l -12.19,-9.94 z m -2.71,-2.03 -9.93,-7.91 -0.06,-12.87 h 0.74 c 0,0 9.26,0 9.26,0 v 20.78 z"
         id="path2" />
      <path
         class="cls-1"
         d="m 604.66,95.77 c -0.56,-0.45 -1.13,-1.91 -2.15,-2.58 -1.34,-0.89 -3.78,-1.51 -5.38,-1.33 -0.97,0.11 -1.88,0.81 -2.79,0.85 -3.13,0.13 -4.83,-1.14 -8.09,1.38 -6.23,4.81 2.2,10.09 7.45,9.03 0.23,-1.35 -0.36,-0.71 -1.06,-0.95 -2.68,-0.9 -6.57,-1.89 -4.92,-5.71 1.44,-3.32 5.83,-3.55 8.91,-3.27 3.94,0.35 1.75,1.12 2.71,3.16 0.62,1.32 3.99,1.2 3.21,3.62 -0.84,2.61 -5.07,4.02 -7.5,4.28 3.89,3.47 13.61,-0.77 13.57,-5.89 -0.02,-2.43 -2.69,-1.58 -3.97,-2.59 z"
         id="path3" />
      <path
         class="cls-1"
         d="m 602.28,106.75 c -5.92,1.86 -10.04,-2.77 -15.8,-2.71 0.58,1.16 0.95,2.37 2.09,3.1 0.4,0.25 7.67,3.13 8.1,3.19 3.12,0.47 4.44,-0.92 5.62,-3.58 z"
         id="path4" />
      <path
         class="cls-1"
         d="m 594.61,99.06 c 1.59,0.61 2.92,0.57 4.51,0 0.45,-1.51 -0.87,-1.45 -1.21,-1.93 -1.06,-1.5 -0.88,-2.6 -3.53,-2.59 -7.21,0.04 -3.48,7.86 2.03,7.23 -0.91,-1.47 -3.38,-0.49 -3.98,-2.58 -1.08,-3.74 4.78,-3.44 4.43,-1.71 -0.21,1.04 -2.13,0.76 -2.25,1.58 z"
         id="path5" />
      <path
         class="cls-1"
         d="m 585.36,106.28 c -0.76,-1.15 -0.86,-2.72 -1.37,-4.05 -0.28,-0.73 -0.88,-2.36 -1.57,-2.71 -0.01,1.89 -0.73,5.87 0.23,7.21 1.24,1.74 4.86,3.04 6.99,2.72 -1.06,-1.55 -3.17,-1.49 -4.27,-3.17 z"
         id="path6" />
      <path
         class="cls-1"
         d="m 597.31,112.61 c -2.39,-2.5 -6.28,-2.5 -9.48,-1.8 2.38,3.08 6.1,3.14 9.48,1.8 z"
         id="path7" />
      <path
         class="cls-1"
         d="m 607.24,104.04 c -1.42,-0.09 -5.41,5.43 -4.96,5.87 2.67,-0.57 5.1,-3.08 4.96,-5.87 z"
         id="path8" />
    </g>
    <g
       id="g25"
       transform="translate(-223.6351,-320.93089)">
      <path
         class="cls-1"
         d="m 282.3,59.78 c 0.48,0 0.9,-0.18 1.25,-0.54 0.36,-0.36 0.54,-0.8 0.54,-1.31 0,-0.51 -0.18,-0.97 -0.54,-1.33 -0.35,-0.36 -0.77,-0.54 -1.25,-0.54 -0.54,0 -0.99,0.18 -1.35,0.54 -0.35,0.36 -0.52,0.81 -0.52,1.33 0,0.52 0.17,0.95 0.52,1.31 0.36,0.36 0.81,0.54 1.35,0.54 z"
         id="path9" />
      <path
         class="cls-1"
         d="m 306.92,61.78 c 0.51,0 0.94,-0.17 1.29,-0.52 0.36,-0.36 0.54,-0.8 0.54,-1.31 0,-0.51 -0.18,-0.97 -0.54,-1.33 -0.35,-0.36 -0.78,-0.54 -1.29,-0.54 -0.51,0 -0.97,0.18 -1.33,0.54 -0.36,0.36 -0.54,0.81 -0.54,1.33 0,0.52 0.18,0.95 0.54,1.31 0.36,0.35 0.8,0.52 1.33,0.52 z"
         id="path10" />
      <path
         class="cls-1"
         d="m 310.56,59.95 c 0,0.52 0.18,0.95 0.54,1.31 0.36,0.35 0.8,0.52 1.31,0.52 0.51,0 0.93,-0.17 1.29,-0.52 0.36,-0.36 0.54,-0.8 0.54,-1.31 0,-0.51 -0.18,-0.97 -0.54,-1.33 -0.36,-0.36 -0.79,-0.54 -1.29,-0.54 -0.5,0 -0.95,0.18 -1.31,0.54 -0.36,0.36 -0.54,0.81 -0.54,1.33 z"
         id="path11" />
      <path
         class="cls-1"
         d="m 309.67,56.82 c 0.5,0 0.92,-0.18 1.27,-0.54 0.36,-0.36 0.54,-0.79 0.54,-1.29 0,-0.54 -0.18,-0.98 -0.54,-1.33 -0.35,-0.36 -0.77,-0.54 -1.27,-0.54 -0.54,0 -0.99,0.18 -1.35,0.54 -0.36,0.36 -0.52,0.79 -0.52,1.33 0,0.5 0.17,0.93 0.52,1.29 0.36,0.36 0.81,0.54 1.35,0.54 z"
         id="path12" />
      <path
         class="cls-1"
         d="m 328.46,77.76 c 0,0.33 -0.14,0.62 -0.4,0.88 -0.25,0.24 -0.54,0.35 -0.85,0.35 h -5.42 c -0.41,0 -0.73,-0.11 -0.98,-0.35 -0.24,-0.25 -0.35,-0.57 -0.35,-0.98 v -7.94 c 0,-1.32 -0.2,-2.52 -0.6,-3.6 -0.41,-1.09 -1.01,-2.11 -1.81,-3.04 l -1.25,1.21 c -0.28,0.27 -0.4,0.54 -0.35,0.83 0.04,0.29 0.15,0.6 0.31,0.92 0.23,0.56 0.42,1.14 0.54,1.75 0.12,0.61 0.17,1.26 0.15,1.94 v 8.04 c 0,0.33 -0.12,0.62 -0.38,0.88 -0.25,0.24 -0.54,0.35 -0.88,0.35 h -3.29 c -0.39,0 -0.72,-0.11 -1,-0.35 -0.27,-0.25 -0.4,-0.56 -0.4,-0.94 V 65.73 h -2.98 v 12.04 c 0,0.33 -0.14,0.62 -0.4,0.88 -0.25,0.24 -0.54,0.35 -0.85,0.35 h -3.31 c -0.39,0 -0.72,-0.11 -0.98,-0.35 -0.25,-0.25 -0.38,-0.56 -0.38,-0.94 V 65.73 h -3.02 v 12.04 c 0,0.33 -0.12,0.62 -0.38,0.88 -0.25,0.24 -0.54,0.35 -0.88,0.35 h -7.66 v -6.54 c 0,-1.32 -0.19,-2.53 -0.56,-3.62 -0.38,-1.09 -0.93,-2.03 -1.65,-2.81 -0.71,-0.79 -1.58,-1.41 -2.62,-1.85 -1.04,-0.44 -2.24,-0.67 -3.58,-0.67 -1.34,0 -2.56,0.23 -3.6,0.69 -1.04,0.45 -1.93,1.06 -2.65,1.85 -0.72,0.79 -1.27,1.73 -1.62,2.81 -0.35,1.08 -0.52,2.28 -0.52,3.58 0,0.64 0.05,1.28 0.17,1.92 0.11,0.64 0.27,1.24 0.48,1.81 0.21,0.57 0.46,1.1 0.77,1.58 0.32,0.49 0.67,0.91 1.04,1.25 h -8.3 c -0.35,0 -0.66,-0.11 -0.92,-0.35 -0.25,-0.25 -0.38,-0.54 -0.38,-0.88 V 55.79 h -3.02 v 21.98 c 0,0.49 0.09,0.95 0.27,1.38 0.19,0.43 0.45,0.81 0.77,1.15 0.33,0.33 0.71,0.6 1.15,0.79 0.44,0.18 0.91,0.27 1.4,0.27 H 299 c 0.58,0 1.09,-0.09 1.52,-0.29 0.44,-0.19 0.84,-0.56 1.19,-1.1 0.34,0.52 0.79,0.88 1.33,1.08 0.54,0.21 1.08,0.31 1.62,0.31 h 3.25 c 0.55,0 1.06,-0.11 1.52,-0.35 0.47,-0.25 0.86,-0.59 1.17,-1.04 0.39,0.47 0.83,0.83 1.33,1.06 0.5,0.22 1.01,0.33 1.54,0.33 h 3.38 c 0.59,0 1.12,-0.11 1.58,-0.35 0.47,-0.25 0.86,-0.59 1.17,-1.04 0.34,0.47 0.76,0.83 1.25,1.06 0.5,0.22 0.98,0.33 1.46,0.33 h 5.58 c 0.48,0 0.94,-0.09 1.38,-0.27 0.44,-0.19 0.82,-0.46 1.15,-0.79 0.33,-0.33 0.59,-0.71 0.77,-1.15 0.19,-0.43 0.29,-0.89 0.29,-1.38 V 55.79 h -3.02 v 21.98 z m -40.91,1.23 h -5.23 c -0.99,0 -1.83,-0.17 -2.52,-0.52 -0.68,-0.34 -1.23,-0.82 -1.65,-1.42 -0.42,-0.61 -0.72,-1.3 -0.9,-2.08 -0.18,-0.79 -0.27,-1.64 -0.27,-2.54 0,-0.9 0.08,-1.75 0.25,-2.54 0.18,-0.8 0.48,-1.5 0.9,-2.08 0.42,-0.59 0.96,-1.07 1.65,-1.42 0.68,-0.34 1.52,-0.52 2.52,-0.52 1,0 1.85,0.18 2.52,0.54 0.68,0.35 1.21,0.83 1.6,1.44 0.4,0.6 0.69,1.3 0.85,2.1 0.18,0.79 0.27,1.62 0.27,2.5 v 6.54 z"
         id="path13" />
      <rect
         class="cls-1"
         x="336.19"
         y="55.779999"
         width="3.02"
         height="25.559999"
         id="rect13" />
      <path
         class="cls-1"
         d="m 356.96,60.4 c 0.48,0 0.91,-0.18 1.27,-0.54 0.36,-0.36 0.54,-0.78 0.54,-1.27 0,-0.53 -0.18,-0.98 -0.54,-1.35 -0.36,-0.38 -0.79,-0.56 -1.27,-0.56 -0.53,0 -0.97,0.19 -1.33,0.56 -0.36,0.38 -0.54,0.83 -0.54,1.35 0,0.49 0.18,0.91 0.54,1.27 0.36,0.36 0.8,0.54 1.33,0.54 z"
         id="path14" />
      <path
         class="cls-1"
         d="m 362.46,60.4 c 0.5,0 0.92,-0.18 1.27,-0.54 0.34,-0.36 0.52,-0.78 0.52,-1.27 0,-0.53 -0.18,-0.98 -0.52,-1.35 -0.35,-0.38 -0.77,-0.56 -1.27,-0.56 -0.54,0 -0.99,0.19 -1.35,0.56 -0.35,0.38 -0.52,0.83 -0.52,1.35 0,0.49 0.17,0.91 0.52,1.27 0.36,0.36 0.81,0.54 1.35,0.54 z"
         id="path15" />
      <path
         class="cls-1"
         d="m 385.61,59.78 c 0.48,0 0.91,-0.18 1.27,-0.54 0.36,-0.36 0.54,-0.8 0.54,-1.31 0,-0.51 -0.18,-0.97 -0.54,-1.33 -0.36,-0.36 -0.79,-0.54 -1.27,-0.54 -0.53,0 -0.97,0.18 -1.33,0.54 -0.36,0.36 -0.54,0.81 -0.54,1.33 0,0.52 0.18,0.95 0.54,1.31 0.36,0.36 0.8,0.54 1.33,0.54 z"
         id="path16" />
      <path
         class="cls-1"
         d="m 380.13,59.78 c 0.48,0 0.91,-0.18 1.27,-0.54 0.36,-0.36 0.54,-0.8 0.54,-1.31 0,-0.51 -0.18,-0.97 -0.54,-1.33 -0.36,-0.36 -0.79,-0.54 -1.27,-0.54 -0.53,0 -0.97,0.18 -1.33,0.54 -0.36,0.36 -0.54,0.81 -0.54,1.33 0,0.52 0.18,0.95 0.54,1.31 0.36,0.36 0.8,0.54 1.33,0.54 z"
         id="path17" />
      <path
         class="cls-1"
         d="m 397.39,84.36 c -0.53,0 -0.97,0.18 -1.33,0.54 -0.36,0.36 -0.54,0.8 -0.54,1.33 0,0.53 0.18,0.94 0.54,1.29 0.36,0.36 0.8,0.54 1.33,0.54 0.48,0 0.91,-0.18 1.27,-0.54 0.36,-0.35 0.54,-0.78 0.54,-1.29 0,-0.51 -0.18,-0.97 -0.54,-1.33 -0.36,-0.36 -0.79,-0.54 -1.27,-0.54 z"
         id="path18" />
      <path
         class="cls-1"
         d="m 402.87,79.13 c 0.19,-0.43 0.29,-0.89 0.29,-1.38 V 63.73 h -3.02 v 14.02 c 0,0.33 -0.12,0.62 -0.38,0.88 -0.24,0.24 -0.53,0.35 -0.88,0.35 h -7.64 v -6.54 c 0,-1.32 -0.19,-2.53 -0.56,-3.62 -0.38,-1.09 -0.93,-2.03 -1.65,-2.81 -0.71,-0.79 -1.59,-1.41 -2.65,-1.85 -1.06,-0.44 -2.26,-0.67 -3.6,-0.67 -1.34,0 -2.52,0.23 -3.56,0.69 -1.04,0.45 -1.93,1.06 -2.65,1.85 -0.72,0.79 -1.27,1.73 -1.62,2.81 -0.35,1.08 -0.52,2.28 -0.52,3.58 0,0.64 0.05,1.28 0.17,1.92 0.11,0.64 0.27,1.24 0.48,1.81 0.21,0.57 0.46,1.1 0.77,1.58 0.32,0.49 0.67,0.91 1.04,1.25 h -8.67 c -0.41,0 -0.73,-0.11 -0.98,-0.35 -0.24,-0.25 -0.35,-0.57 -0.35,-0.98 v -13.9 h -1.42 c -0.12,0 -0.23,0.04 -0.31,0.1 -0.07,0.07 -0.14,0.14 -0.19,0.21 -0.14,0.27 -0.28,0.57 -0.42,0.92 -0.14,0.35 -0.23,0.59 -0.27,0.73 -0.53,-0.59 -1.25,-1.12 -2.17,-1.58 -0.92,-0.46 -1.97,-0.69 -3.15,-0.69 -1.29,0 -2.42,0.25 -3.38,0.75 -0.95,0.5 -1.73,1.18 -2.35,2.02 -0.62,0.85 -1.1,1.82 -1.42,2.92 -0.31,1.1 -0.46,2.25 -0.46,3.46 0,1 0.11,2.02 0.33,3.06 0.23,1.04 0.61,1.99 1.12,2.83 0.53,0.83 1.21,1.52 2.06,2.06 0.84,0.53 1.88,0.79 3.1,0.79 h 5.29 c 0.57,0 1.08,-0.12 1.54,-0.38 0.47,-0.26 0.86,-0.6 1.19,-1.02 0.34,0.47 0.77,0.83 1.27,1.06 0.5,0.22 0.98,0.33 1.46,0.33 h 30.83 c 0.51,0 0.98,-0.09 1.4,-0.27 0.43,-0.19 0.8,-0.46 1.12,-0.79 0.33,-0.33 0.59,-0.71 0.77,-1.15 z m -39,-1.37 c 0,0.33 -0.14,0.62 -0.4,0.88 -0.25,0.24 -0.54,0.35 -0.85,0.35 h -3.6 c -0.93,0 -1.69,-0.21 -2.27,-0.62 -0.57,-0.42 -1.03,-0.95 -1.38,-1.6 -0.33,-0.65 -0.56,-1.36 -0.67,-2.12 -0.11,-0.76 -0.17,-1.49 -0.17,-2.19 0,-0.88 0.07,-1.71 0.23,-2.52 0.17,-0.82 0.44,-1.53 0.81,-2.15 0.39,-0.61 0.9,-1.09 1.52,-1.46 0.62,-0.36 1.4,-0.54 2.33,-0.54 0.88,0 1.7,0.21 2.48,0.62 0.78,0.42 1.43,0.99 1.96,1.71 v 9.65 z m 24.26,1.23 h -5.25 c -1,0 -1.84,-0.17 -2.52,-0.52 -0.68,-0.34 -1.23,-0.82 -1.65,-1.42 -0.42,-0.61 -0.72,-1.3 -0.9,-2.08 -0.17,-0.79 -0.25,-1.64 -0.25,-2.54 0,-0.9 0.08,-1.75 0.25,-2.54 0.18,-0.8 0.48,-1.5 0.9,-2.08 0.42,-0.59 0.96,-1.07 1.62,-1.42 0.67,-0.34 1.5,-0.52 2.5,-0.52 1,0 1.85,0.18 2.52,0.54 0.68,0.35 1.22,0.83 1.62,1.44 0.42,0.6 0.71,1.3 0.88,2.1 0.18,0.79 0.27,1.62 0.27,2.5 v 6.54 z"
         id="path19" />
      <path
         class="cls-1"
         d="m 402.87,84.36 c -0.53,0 -0.97,0.18 -1.33,0.54 -0.36,0.36 -0.54,0.8 -0.54,1.33 0,0.53 0.18,0.94 0.54,1.29 0.36,0.36 0.8,0.54 1.33,0.54 0.48,0 0.91,-0.18 1.27,-0.54 0.36,-0.35 0.54,-0.78 0.54,-1.29 0,-0.51 -0.18,-0.97 -0.54,-1.33 -0.36,-0.36 -0.79,-0.54 -1.27,-0.54 z"
         id="path20" />
      <path
         class="cls-1"
         d="m 449.91,77.76 c 0,0.33 -0.14,0.62 -0.4,0.88 -0.25,0.24 -0.54,0.35 -0.85,0.35 h -5.69 c -0.12,-0.4 -0.25,-0.8 -0.38,-1.21 -0.12,-0.4 -0.24,-0.82 -0.35,-1.27 l -1.58,-5.12 c -0.14,-0.42 -0.27,-0.82 -0.4,-1.23 -0.12,-0.42 -0.24,-0.82 -0.35,-1.21 -0.28,-0.9 -0.67,-1.69 -1.17,-2.38 -0.5,-0.68 -1.09,-1.25 -1.77,-1.71 -0.67,-0.47 -1.41,-0.82 -2.21,-1.06 -0.81,-0.23 -1.66,-0.35 -2.56,-0.35 -2.16,0 -4.06,0.77 -5.73,2.31 0.01,0.02 0.05,0.08 0.12,0.19 0.07,0.1 0.15,0.21 0.23,0.33 0.08,0.11 0.17,0.22 0.25,0.33 0.08,0.1 0.13,0.17 0.15,0.21 0.17,0.24 0.4,0.35 0.71,0.35 0.22,0 0.42,-0.07 0.58,-0.21 0.59,-0.39 1.15,-0.67 1.65,-0.85 0.5,-0.19 1.11,-0.29 1.83,-0.29 1.32,0 2.39,0.33 3.21,0.98 0.82,0.64 1.42,1.55 1.81,2.73 0.14,0.41 0.46,1.45 0.96,3.12 0.5,1.67 1.11,3.78 1.83,6.33 h -16.85 c -0.46,0 -0.82,-0.17 -1.08,-0.52 -0.25,-0.34 -0.41,-0.82 -0.48,-1.44 -0.03,-0.28 -0.08,-0.65 -0.15,-1.12 -0.07,-0.47 -0.15,-0.94 -0.23,-1.42 -0.07,-0.47 -0.14,-0.89 -0.21,-1.25 -0.06,-0.36 -0.09,-0.57 -0.1,-0.65 -0.41,-2.61 -1.41,-4.66 -3.02,-6.15 -1.6,-1.48 -3.81,-2.39 -6.65,-2.71 -0.04,0.18 -0.08,0.36 -0.12,0.54 -0.06,0.17 -0.1,0.35 -0.15,0.54 -0.03,0.18 -0.06,0.35 -0.1,0.52 -0.07,0.28 -0.02,0.51 0.15,0.69 0.18,0.17 0.4,0.27 0.65,0.31 1.83,0.31 3.28,1.01 4.33,2.1 1.07,1.1 1.76,2.55 2.06,4.35 0.14,0.74 0.27,1.45 0.4,2.15 0.12,0.7 0.19,1.42 0.19,2.17 0,0.62 -0.17,1.1 -0.5,1.42 -0.33,0.31 -0.79,0.46 -1.38,0.46 h -8.65 c -0.25,0 -0.47,0.06 -0.65,0.19 -0.17,0.12 -0.27,0.31 -0.29,0.56 l -0.1,1.25 c 0.38,0.12 0.72,0.22 1.04,0.27 0.33,0.06 0.65,0.08 0.94,0.08 h 8.62 c 1.26,0 2.22,-0.47 2.88,-1.42 0.38,0.46 0.8,0.81 1.29,1.06 0.48,0.24 0.98,0.35 1.5,0.35 h 26.21 c 0.48,0 0.94,-0.09 1.38,-0.27 0.44,-0.19 0.82,-0.46 1.15,-0.79 0.33,-0.33 0.59,-0.71 0.77,-1.15 0.19,-0.43 0.29,-0.89 0.29,-1.38 V 55.74 h -3.02 v 21.98 z"
         id="path21" />
      <rect
         class="cls-1"
         x="457.64001"
         y="55.779999"
         width="3.02"
         height="25.559999"
         id="rect21" />
      <path
         class="cls-1"
         d="m 477.27,55.84 c -0.5,0 -0.94,0.18 -1.31,0.54 -0.38,0.36 -0.56,0.81 -0.56,1.33 0,0.52 0.19,0.95 0.56,1.31 0.38,0.36 0.81,0.54 1.31,0.54 0.5,0 0.94,-0.18 1.29,-0.54 0.34,-0.36 0.52,-0.8 0.52,-1.31 0,-0.51 -0.18,-0.97 -0.52,-1.33 -0.35,-0.36 -0.78,-0.54 -1.29,-0.54 z"
         id="path22" />
      <path
         class="cls-1"
         d="m 475.75,82.76 c 0,1.04 -0.24,1.76 -0.73,2.15 -0.49,0.4 -1.22,0.6 -2.19,0.6 -0.24,0 -0.43,0.03 -0.56,0.1 -0.14,0.07 -0.23,0.26 -0.27,0.58 l -0.15,1.19 c 0.33,0.14 0.67,0.23 1,0.29 0.33,0.05 0.66,0.08 0.98,0.08 1.67,0 2.9,-0.45 3.71,-1.35 0.82,-0.91 1.23,-2.12 1.23,-3.65 v -19 h -3.02 v 19 z"
         id="path23" />
      <path
         class="cls-1"
         d="m 496.78,66.03 c -0.71,-0.8 -1.58,-1.43 -2.62,-1.88 -1.04,-0.44 -2.24,-0.67 -3.58,-0.67 -1.34,0 -2.6,0.24 -3.65,0.71 -1.04,0.46 -1.92,1.1 -2.62,1.92 -0.71,0.81 -1.24,1.76 -1.58,2.85 -0.35,1.1 -0.52,2.29 -0.52,3.58 0,1.29 0.19,2.57 0.56,3.67 0.38,1.1 0.92,2.05 1.62,2.85 0.72,0.79 1.6,1.41 2.65,1.85 1.04,0.44 2.23,0.67 3.58,0.67 1.35,0 2.39,-0.15 3.29,-0.44 0.9,-0.29 1.58,-0.7 2.04,-1.23 v 0.17 c 0,1.28 -0.2,2.27 -0.58,2.98 -0.38,0.72 -0.9,1.26 -1.56,1.6 -0.67,0.34 -1.45,0.56 -2.35,0.65 -0.91,0.08 -1.88,0.12 -2.92,0.12 -0.35,0 -0.59,0.07 -0.73,0.21 -0.14,0.14 -0.24,0.33 -0.29,0.58 l -0.12,1.19 c 0.32,0.11 0.75,0.19 1.29,0.25 0.54,0.05 1.17,0.08 1.9,0.08 1.14,0 2.21,-0.1 3.23,-0.31 1.01,-0.21 1.9,-0.61 2.67,-1.21 0.76,-0.58 1.38,-1.41 1.83,-2.48 0.46,-1.06 0.69,-2.43 0.69,-4.12 v -7.08 c 0,-1.33 -0.19,-2.55 -0.56,-3.67 -0.38,-1.11 -0.93,-2.06 -1.65,-2.85 z m -0.96,7.96 c 0,0.83 -0.04,1.58 -0.12,2.23 -0.08,0.64 -0.3,1.19 -0.65,1.65 -0.35,0.45 -0.87,0.79 -1.56,1.02 -0.7,0.22 -1.67,0.33 -2.92,0.33 -1,0 -1.83,-0.17 -2.5,-0.52 -0.67,-0.36 -1.21,-0.84 -1.62,-1.46 -0.42,-0.62 -0.72,-1.34 -0.9,-2.15 -0.17,-0.8 -0.25,-1.65 -0.25,-2.54 0,-0.89 0.09,-1.76 0.27,-2.58 0.18,-0.82 0.48,-1.53 0.9,-2.12 0.42,-0.61 0.96,-1.09 1.62,-1.44 0.68,-0.36 1.51,-0.54 2.48,-0.54 0.97,0 1.85,0.18 2.52,0.54 0.68,0.35 1.22,0.83 1.62,1.46 0.4,0.61 0.69,1.32 0.85,2.12 0.17,0.81 0.25,1.66 0.25,2.56 v 1.44 z"
         id="path24" />
      <path
         class="cls-1"
         d="M 505.3,63.76 V 82.8 c 0,1.04 -0.24,1.75 -0.71,2.12 -0.47,0.39 -1.2,0.58 -2.17,0.58 -0.24,0 -0.43,0.03 -0.56,0.1 -0.14,0.07 -0.23,0.26 -0.27,0.58 l -0.15,1.19 c 0.32,0.14 0.65,0.23 0.98,0.29 0.34,0.05 0.67,0.08 0.96,0.08 1.67,0 2.9,-0.45 3.71,-1.33 0.82,-0.89 1.23,-2.1 1.23,-3.62 V 63.75 h -3.02 z"
         id="path25" />
    </g>
    <g
       id="g42"
       transform="translate(-223.6351,-320.93089)">
      <path
         class="cls-1"
         d="m 245.77,122.32 c -0.25,-0.32 -0.56,-0.78 -0.94,-1.4 l -1.77,-2.79 c -0.42,-0.65 -0.75,-1.13 -1,-1.44 -0.24,-0.32 -0.51,-0.59 -0.81,-0.83 1.8,-0.36 3.07,-1.01 3.79,-1.96 0.73,-0.96 1.09,-2.04 1.08,-3.25 0,-1.48 -0.57,-2.62 -1.71,-3.42 -1.14,-0.79 -2.93,-1.2 -5.38,-1.23 -0.42,-0.03 -1.04,-0.04 -1.88,-0.04 -0.92,0 -2.28,0.02 -4.08,0.06 v 1.15 l 1.88,-0.1 c -0.06,0.52 -0.08,1.14 -0.08,1.88 v 11.25 c 0,0.89 -0.02,1.52 -0.06,1.88 -0.03,0.35 -0.18,0.66 -0.44,0.92 -0.25,0.25 -0.68,0.39 -1.29,0.42 v 0.85 h 5.85 v -1.15 l -1.88,0.1 c 0.05,-0.46 0.08,-1.15 0.08,-2.06 v -5.04 c 0.22,0.02 0.57,0.02 1.04,0.02 0.33,0 0.57,0 0.73,-0.02 0.23,0.22 0.46,0.48 0.67,0.77 0.21,0.29 0.45,0.68 0.73,1.15 l 0.35,0.54 1.73,2.79 c 0.44,0.68 0.82,1.24 1.15,1.67 0.32,0.42 0.71,0.83 1.19,1.23 h 3.27 v -0.85 c -0.52,0 -0.95,-0.09 -1.31,-0.29 -0.36,-0.21 -0.67,-0.47 -0.92,-0.79 z m -7.48,-7.18 c -0.25,0 -0.64,-0.01 -1.15,-0.04 v -5 c 0,-0.89 0.01,-1.51 0.04,-1.85 0.04,-0.34 0.19,-0.64 0.44,-0.88 0.26,-0.25 0.7,-0.38 1.31,-0.38 1.58,0 2.76,0.33 3.52,1 0.76,0.66 1.15,1.64 1.15,2.96 0,2.79 -1.77,4.19 -5.31,4.19 z"
         id="path26" />
      <path
         class="cls-1"
         d="m 263.36,107.03 c -1.41,-0.94 -3.1,-1.42 -5.08,-1.42 -1.98,0 -3.6,0.47 -4.98,1.42 -1.36,0.95 -2.39,2.15 -3.06,3.6 -0.68,1.46 -1.02,2.96 -1.02,4.5 0,1.62 0.32,3.16 0.98,4.6 0.67,1.45 1.69,2.64 3.08,3.56 1.39,0.92 3.12,1.38 5.21,1.38 1.94,0 3.59,-0.47 4.96,-1.42 1.36,-0.94 2.38,-2.15 3.06,-3.62 0.69,-1.47 1.04,-2.97 1.04,-4.5 0,-1.53 -0.35,-3.04 -1.04,-4.5 -0.7,-1.46 -1.74,-2.66 -3.15,-3.6 z m 0.83,12.44 c -0.5,1.21 -1.23,2.2 -2.19,2.98 -0.96,0.78 -2.12,1.17 -3.48,1.17 -1.46,0 -2.7,-0.46 -3.73,-1.38 -1.02,-0.92 -1.78,-2.06 -2.29,-3.44 -0.5,-1.38 -0.75,-2.75 -0.75,-4.12 0,-1.37 0.24,-2.61 0.73,-3.85 0.5,-1.23 1.23,-2.23 2.21,-3 0.97,-0.78 2.14,-1.17 3.5,-1.17 1.36,0 2.57,0.44 3.58,1.31 1.03,0.88 1.81,2.01 2.35,3.4 0.54,1.38 0.81,2.8 0.81,4.27 0,1.33 -0.25,2.61 -0.75,3.83 z"
         id="path27" />
      <path
         class="cls-1"
         d="m 279.7,115.43 c -0.71,-0.43 -1.66,-0.92 -2.83,-1.46 -1.04,-0.48 -1.85,-0.89 -2.44,-1.21 -0.57,-0.33 -1.06,-0.75 -1.46,-1.25 -0.39,-0.51 -0.58,-1.11 -0.58,-1.81 0,-0.86 0.29,-1.58 0.88,-2.17 0.59,-0.58 1.42,-0.88 2.46,-0.88 1.42,0 2.52,0.47 3.31,1.42 0.79,0.95 1.23,2.1 1.31,3.48 h 0.94 v -5.73 h -1.33 l 0.1,1.12 c -0.66,-0.48 -1.38,-0.82 -2.17,-1.02 -0.79,-0.21 -1.58,-0.31 -2.35,-0.31 -1.31,0 -2.35,0.24 -3.15,0.73 -0.79,0.49 -1.35,1.08 -1.67,1.77 -0.32,0.7 -0.48,1.39 -0.48,2.08 0,1 0.24,1.85 0.73,2.54 0.48,0.68 1.07,1.23 1.75,1.65 0.69,0.42 1.62,0.91 2.79,1.46 1.01,0.47 1.82,0.89 2.42,1.25 0.61,0.35 1.11,0.79 1.52,1.31 0.4,0.53 0.6,1.17 0.6,1.92 0,1.02 -0.36,1.81 -1.08,2.4 -0.71,0.57 -1.6,0.85 -2.67,0.85 -1.43,0 -2.62,-0.4 -3.56,-1.21 -0.93,-0.8 -1.45,-1.95 -1.54,-3.44 h -1 l 0.15,5.54 h 1.35 l -0.12,-1.12 c 0.62,0.43 1.34,0.76 2.17,0.98 0.83,0.23 1.65,0.35 2.46,0.35 1.28,0 2.38,-0.21 3.29,-0.62 0.91,-0.41 1.61,-1 2.08,-1.75 0.48,-0.75 0.73,-1.61 0.73,-2.58 0,-0.97 -0.26,-1.88 -0.77,-2.58 -0.5,-0.71 -1.11,-1.28 -1.83,-1.71 z"
         id="path28" />
      <path
         class="cls-1"
         d="m 296.62,122.3 c -0.64,0.6 -1.56,0.91 -2.77,0.92 l -4.98,0.08 c 0.05,-0.46 0.08,-1.14 0.08,-2.04 v -5.96 l 1.9,-0.08 0.81,-0.02 c 0.57,0 1.01,0.06 1.33,0.17 0.32,0.11 0.55,0.34 0.71,0.69 0.17,0.33 0.25,0.82 0.25,1.46 h 0.85 v -5.46 h -1.15 l 0.19,2.23 -4.9,-0.02 v -4.17 c 0,-0.83 0.03,-1.44 0.1,-1.83 0.07,-0.39 0.24,-0.69 0.52,-0.92 0.28,-0.22 0.73,-0.34 1.35,-0.35 l 2.23,-0.04 c 1.11,-0.04 1.97,0.2 2.58,0.73 0.62,0.52 0.94,1.49 0.94,2.92 h 0.85 l -0.12,-4.56 h -12.52 v 1.15 l 1.88,-0.1 c -0.06,0.52 -0.08,1.14 -0.08,1.88 v 11.25 c 0,0.89 -0.02,1.52 -0.06,1.88 -0.03,0.35 -0.18,0.66 -0.44,0.92 -0.25,0.25 -0.68,0.39 -1.29,0.42 v 0.85 h 13.44 l 0.15,-5.08 h -0.88 c 0,1.47 -0.33,2.52 -0.98,3.12 z"
         id="path29" />
      <path
         class="cls-1"
         d="m 319.89,116.53 1.81,-0.1 v 5.69 c -0.64,0.45 -1.35,0.78 -2.15,1 -0.79,0.21 -1.56,0.31 -2.31,0.31 -1.35,0 -2.56,-0.36 -3.62,-1.08 -1.06,-0.73 -1.89,-1.74 -2.48,-3.02 -0.58,-1.29 -0.88,-2.76 -0.88,-4.4 0,-1.64 0.3,-2.98 0.9,-4.25 0.61,-1.26 1.42,-2.25 2.44,-2.96 1.01,-0.71 2.14,-1.06 3.38,-1.06 1.54,0 2.82,0.45 3.85,1.35 1.04,0.91 1.61,2.16 1.73,3.75 h 0.94 v -5.96 h -1.42 l 0.1,1.25 c -0.74,-0.46 -1.59,-0.81 -2.56,-1.06 -0.96,-0.25 -1.91,-0.38 -2.83,-0.38 -1.93,0 -3.58,0.47 -4.96,1.42 -1.36,0.95 -2.39,2.18 -3.08,3.69 -0.68,1.52 -1.02,3.12 -1.02,4.81 0,1.88 0.36,3.5 1.1,4.88 0.75,1.38 1.79,2.43 3.12,3.17 1.34,0.73 2.89,1.1 4.62,1.1 0.58,0 1.23,-0.06 1.94,-0.19 0.72,-0.11 1.34,-0.28 1.85,-0.5 1.15,-0.44 2.09,-0.67 2.81,-0.67 h 0.71 v -3.98 c 0,-0.8 0.1,-1.52 0.31,-2.15 0.21,-0.64 0.73,-0.96 1.56,-0.96 v -0.85 h -5.88 v 1.15 z"
         id="path30" />
      <path
         class="cls-1"
         d="m 340.98,121.89 c -0.14,-0.55 -0.31,-1.07 -0.5,-1.54 l -5.81,-14.81 h -0.62 l -5.35,14.6 -0.27,0.73 c -0.22,0.66 -0.42,1.14 -0.58,1.46 -0.17,0.32 -0.39,0.58 -0.65,0.79 -0.25,0.2 -0.6,0.29 -1.04,0.29 v 0.85 h 4.88 v -1.15 l -2.02,0.1 c 0.26,-0.62 0.48,-1.22 0.65,-1.79 0.34,-1.15 0.65,-2.08 0.92,-2.79 l 6.77,-0.17 0.92,2.46 c 0.17,0.49 0.25,0.9 0.25,1.23 0,0.81 -0.52,1.22 -1.54,1.25 v 0.85 h 5.98 v -1.15 l -1.77,0.1 c 0.01,-0.34 -0.05,-0.79 -0.19,-1.33 z m -10.02,-4.38 0.44,-1.27 1.4,-3.96 1.1,-2.94 h 0.04 l 1.19,3.19 1.83,4.98 z"
         id="path31" />
      <path
         class="cls-1"
         d="m 356.74,122.32 c -0.25,-0.32 -0.56,-0.78 -0.94,-1.4 l -1.77,-2.79 c -0.42,-0.65 -0.75,-1.13 -1,-1.44 -0.24,-0.32 -0.51,-0.59 -0.81,-0.83 1.8,-0.36 3.07,-1.01 3.79,-1.96 0.73,-0.96 1.09,-2.04 1.08,-3.25 0,-1.48 -0.57,-2.62 -1.71,-3.42 -1.14,-0.79 -2.93,-1.2 -5.38,-1.23 -0.42,-0.03 -1.04,-0.04 -1.88,-0.04 -0.92,0 -2.28,0.02 -4.08,0.06 v 1.15 l 1.88,-0.1 c -0.06,0.52 -0.08,1.14 -0.08,1.88 v 11.25 c 0,0.89 -0.02,1.52 -0.06,1.88 -0.03,0.35 -0.18,0.66 -0.44,0.92 -0.25,0.25 -0.68,0.39 -1.29,0.42 v 0.85 h 5.85 v -1.15 l -1.88,0.1 c 0.05,-0.46 0.08,-1.15 0.08,-2.06 v -5.04 c 0.22,0.02 0.57,0.02 1.04,0.02 0.33,0 0.57,0 0.73,-0.02 0.23,0.22 0.46,0.48 0.67,0.77 0.21,0.29 0.45,0.68 0.73,1.15 l 0.35,0.54 1.73,2.79 c 0.44,0.68 0.82,1.24 1.15,1.67 0.32,0.42 0.71,0.83 1.19,1.23 h 3.27 v -0.85 c -0.52,0 -0.95,-0.09 -1.31,-0.29 -0.36,-0.21 -0.67,-0.47 -0.92,-0.79 z m -7.48,-7.18 c -0.25,0 -0.64,-0.01 -1.15,-0.04 v -5 c 0,-0.89 0.01,-1.51 0.04,-1.85 0.04,-0.34 0.19,-0.64 0.44,-0.88 0.26,-0.25 0.7,-0.38 1.31,-0.38 1.58,0 2.76,0.33 3.52,1 0.76,0.66 1.15,1.64 1.15,2.96 0,2.79 -1.77,4.19 -5.31,4.19 z"
         id="path32" />
      <path
         class="cls-1"
         d="m 374.31,108.3 c -1.91,-1.55 -4.49,-2.32 -7.75,-2.29 l -6.15,0.02 v 1.15 l 1.88,-0.1 c -0.06,0.52 -0.08,1.14 -0.08,1.88 v 11.25 c 0,0.89 -0.02,1.52 -0.06,1.88 -0.03,0.35 -0.18,0.66 -0.44,0.92 -0.25,0.25 -0.68,0.39 -1.29,0.42 v 0.85 h 6.85 c 2.09,0 3.89,-0.41 5.38,-1.23 1.5,-0.83 2.63,-1.94 3.4,-3.33 0.76,-1.39 1.15,-2.9 1.15,-4.52 0,-3.04 -0.96,-5.33 -2.88,-6.88 z m -0.63,10.96 c -0.62,1.25 -1.5,2.23 -2.62,2.94 -1.12,0.71 -2.42,1.06 -3.88,1.06 -1.25,0 -2.18,-0.01 -2.79,-0.04 0.05,-0.46 0.08,-1.14 0.08,-2.04 V 110.1 c 0,-0.89 0.01,-1.51 0.04,-1.85 0.04,-0.36 0.19,-0.66 0.44,-0.9 0.26,-0.25 0.7,-0.38 1.31,-0.38 2.79,0 4.88,0.72 6.27,2.15 1.39,1.43 2.08,3.42 2.08,5.96 0,1.54 -0.31,2.94 -0.94,4.19 z"
         id="path33" />
      <path
         class="cls-1"
         d="m 391.28,122.3 c -0.64,0.6 -1.56,0.91 -2.77,0.92 l -4.98,0.08 c 0.05,-0.46 0.08,-1.14 0.08,-2.04 v -5.96 l 1.9,-0.08 0.81,-0.02 c 0.57,0 1.01,0.06 1.33,0.17 0.32,0.11 0.55,0.34 0.71,0.69 0.17,0.33 0.25,0.82 0.25,1.46 h 0.85 v -5.46 h -1.15 l 0.19,2.23 -4.9,-0.02 v -4.17 c 0,-0.83 0.03,-1.44 0.1,-1.83 0.07,-0.39 0.24,-0.69 0.52,-0.92 0.28,-0.22 0.73,-0.34 1.35,-0.35 l 2.23,-0.04 c 1.11,-0.04 1.97,0.2 2.58,0.73 0.62,0.52 0.94,1.49 0.94,2.92 h 0.85 l -0.12,-4.56 h -12.52 v 1.15 l 1.88,-0.1 c -0.06,0.52 -0.08,1.14 -0.08,1.88 v 11.25 c 0,0.89 -0.02,1.52 -0.06,1.88 -0.03,0.35 -0.18,0.66 -0.44,0.92 -0.25,0.25 -0.68,0.39 -1.29,0.42 v 0.85 h 13.44 l 0.15,-5.08 h -0.88 c 0,1.47 -0.33,2.52 -0.98,3.12 z"
         id="path34" />
      <path
         class="cls-1"
         d="m 408.25,107.18 1.88,-0.1 c -0.06,0.52 -0.08,1.14 -0.08,1.88 l -0.02,11.92 h -0.02 l -11.1,-14.83 h -3.1 v 1.15 l 1.75,-0.1 -0.02,14.27 c 0,0.57 -0.12,1.06 -0.35,1.46 -0.22,0.41 -0.68,0.6 -1.38,0.6 v 0.85 h 4.77 v -1.15 l -1.88,0.1 c 0.04,-0.55 0.06,-1.42 0.06,-2.58 l -0.08,-11.15 h 0.02 l 11.31,15.19 h 1.25 l 0.04,-14.58 v -0.92 c 0,-0.51 0.03,-0.92 0.1,-1.23 0.07,-0.32 0.23,-0.57 0.48,-0.75 0.25,-0.19 0.64,-0.3 1.17,-0.31 v -0.85 h -4.79 v 1.15 z"
         id="path35" />
      <path
         class="cls-1"
         d="m 435.68,121.89 c -0.14,-0.55 -0.31,-1.07 -0.5,-1.54 l -5.81,-14.81 h -0.62 l -5.35,14.6 -0.27,0.73 c -0.22,0.66 -0.42,1.14 -0.58,1.46 -0.17,0.32 -0.39,0.58 -0.65,0.79 -0.25,0.2 -0.6,0.29 -1.04,0.29 v 0.85 h 4.88 v -1.15 l -2.02,0.1 c 0.26,-0.62 0.48,-1.22 0.65,-1.79 0.34,-1.15 0.65,-2.08 0.92,-2.79 l 6.77,-0.17 0.92,2.46 c 0.17,0.49 0.25,0.9 0.25,1.23 0,0.81 -0.52,1.22 -1.54,1.25 v 0.85 h 5.98 v -1.15 l -1.77,0.1 c 0.01,-0.34 -0.05,-0.79 -0.19,-1.33 z m -10.03,-4.38 0.44,-1.27 1.4,-3.96 1.1,-2.94 h 0.04 l 1.19,3.19 1.83,4.98 z"
         id="path36" />
      <path
         class="cls-1"
         d="m 450.1,122.18 c -0.56,0.68 -1.39,1.03 -2.5,1.04 l -4.88,0.08 c 0.05,-0.46 0.08,-1.14 0.08,-2.04 v -11.17 c 0,-0.89 0.01,-1.51 0.04,-1.85 0.04,-0.36 0.19,-0.67 0.44,-0.94 0.26,-0.26 0.7,-0.4 1.31,-0.42 v -0.85 h -5.85 v 1.15 l 1.88,-0.1 c -0.06,0.52 -0.08,1.14 -0.08,1.88 v 11.25 c 0,0.89 -0.02,1.52 -0.06,1.88 -0.03,0.35 -0.18,0.66 -0.44,0.92 -0.25,0.25 -0.68,0.39 -1.29,0.42 v 0.85 h 12.92 l 0.15,-5.4 h -0.88 c 0,1.52 -0.28,2.62 -0.83,3.31 z"
         id="path37" />
      <path
         class="cls-1"
         d="m 463.39,115.43 c -0.71,-0.43 -1.66,-0.92 -2.83,-1.46 -1.04,-0.48 -1.85,-0.89 -2.44,-1.21 -0.57,-0.33 -1.06,-0.75 -1.46,-1.25 -0.39,-0.51 -0.58,-1.11 -0.58,-1.81 0,-0.86 0.29,-1.58 0.88,-2.17 0.59,-0.58 1.42,-0.88 2.46,-0.88 1.42,0 2.52,0.47 3.31,1.42 0.79,0.95 1.23,2.1 1.31,3.48 h 0.94 v -5.73 h -1.33 l 0.1,1.12 c -0.66,-0.48 -1.38,-0.82 -2.17,-1.02 -0.79,-0.21 -1.58,-0.31 -2.35,-0.31 -1.31,0 -2.35,0.24 -3.15,0.73 -0.79,0.49 -1.35,1.08 -1.67,1.77 -0.32,0.7 -0.48,1.39 -0.48,2.08 0,1 0.24,1.85 0.73,2.54 0.48,0.68 1.07,1.23 1.75,1.65 0.69,0.42 1.62,0.91 2.79,1.46 1.01,0.47 1.82,0.89 2.42,1.25 0.61,0.35 1.11,0.79 1.52,1.31 0.4,0.53 0.6,1.17 0.6,1.92 0,1.02 -0.36,1.81 -1.08,2.4 -0.71,0.57 -1.6,0.85 -2.67,0.85 -1.43,0 -2.62,-0.4 -3.56,-1.21 -0.93,-0.8 -1.45,-1.95 -1.54,-3.44 h -1 l 0.15,5.54 h 1.35 l -0.12,-1.12 c 0.62,0.43 1.34,0.76 2.17,0.98 0.83,0.23 1.65,0.35 2.46,0.35 1.28,0 2.38,-0.21 3.29,-0.62 0.91,-0.41 1.61,-1 2.08,-1.75 0.48,-0.75 0.73,-1.61 0.73,-2.58 0,-0.97 -0.26,-1.88 -0.77,-2.58 -0.5,-0.71 -1.11,-1.28 -1.83,-1.71 z"
         id="path38" />
      <path
         class="cls-1"
         d="m 480.15,107.18 1.88,-0.1 c -0.06,0.52 -0.08,1.14 -0.08,1.88 v 5.46 h -9.31 v -4.31 c 0,-0.89 0.01,-1.51 0.04,-1.85 0.04,-0.36 0.19,-0.67 0.44,-0.94 0.26,-0.26 0.7,-0.4 1.31,-0.42 v -0.85 h -5.85 v 1.15 l 1.88,-0.1 c -0.06,0.52 -0.08,1.14 -0.08,1.88 v 11.25 c 0,0.89 -0.02,1.52 -0.06,1.88 -0.03,0.35 -0.18,0.66 -0.44,0.92 -0.25,0.25 -0.68,0.39 -1.29,0.42 v 0.85 h 5.85 v -1.15 l -1.88,0.1 c 0.05,-0.46 0.08,-1.15 0.08,-2.06 v -5.6 l 9.31,-0.1 v 4.75 c 0,0.89 -0.02,1.52 -0.06,1.88 -0.03,0.35 -0.18,0.66 -0.44,0.92 -0.25,0.25 -0.68,0.39 -1.29,0.42 v 0.85 h 5.85 v -1.15 l -1.88,0.1 c 0.05,-0.46 0.08,-1.15 0.08,-2.06 v -11.06 c 0,-0.89 0.01,-1.51 0.04,-1.85 0.04,-0.36 0.19,-0.67 0.46,-0.94 0.26,-0.26 0.69,-0.4 1.29,-0.42 v -0.85 h -5.85 v 1.15 z"
         id="path39" />
      <path
         class="cls-1"
         d="m 502.11,121.89 c -0.14,-0.55 -0.31,-1.07 -0.5,-1.54 l -5.81,-14.81 h -0.62 l -5.35,14.6 -0.27,0.73 c -0.22,0.66 -0.42,1.14 -0.58,1.46 -0.17,0.32 -0.39,0.58 -0.65,0.79 -0.25,0.2 -0.6,0.29 -1.04,0.29 v 0.85 h 4.88 v -1.15 l -2.02,0.1 c 0.26,-0.62 0.48,-1.22 0.65,-1.79 0.34,-1.15 0.65,-2.08 0.92,-2.79 l 6.77,-0.17 0.92,2.46 c 0.17,0.49 0.25,0.9 0.25,1.23 0,0.81 -0.52,1.22 -1.54,1.25 v 0.85 h 5.98 v -1.15 l -1.77,0.1 c 0.01,-0.34 -0.05,-0.79 -0.19,-1.33 z m -10.02,-4.38 0.44,-1.27 1.4,-3.96 1.1,-2.94 h 0.04 l 1.19,3.19 1.83,4.98 z"
         id="path40" />
      <path
         class="cls-1"
         d="m 517.27,106.03 h -12.08 v 1.15 l 1.88,-0.1 c -0.06,0.52 -0.08,1.14 -0.08,1.88 v 11.25 c 0,0.89 -0.02,1.52 -0.06,1.88 -0.03,0.35 -0.18,0.66 -0.44,0.92 -0.25,0.25 -0.68,0.39 -1.29,0.42 v 0.85 h 6.65 v -1.15 l -2.67,0.1 c 0.05,-0.46 0.08,-1.15 0.08,-2.06 v -5.46 l 1.56,-0.08 c 0.21,-0.01 0.5,-0.02 0.88,-0.02 0.55,0 0.98,0.06 1.29,0.19 0.32,0.11 0.55,0.33 0.71,0.67 0.15,0.33 0.23,0.83 0.23,1.48 h 0.83 v -5.5 h -1.15 l 0.17,2.27 -4.52,-0.02 v -4.48 c 0,-0.84 0.02,-1.46 0.06,-1.83 0.04,-0.37 0.19,-0.69 0.44,-0.96 0.25,-0.26 0.68,-0.4 1.29,-0.42 l 1.9,-0.04 c 1.11,-0.04 1.98,0.2 2.62,0.73 0.65,0.52 0.98,1.49 0.98,2.92 h 0.85 l -0.12,-4.56 z"
         id="path41" />
      <path
         class="cls-1"
         d="m 531.88,123.22 c 0.01,-0.34 -0.05,-0.79 -0.19,-1.33 -0.14,-0.55 -0.31,-1.07 -0.5,-1.54 l -5.81,-14.81 h -0.62 l -5.35,14.6 -0.27,0.73 c -0.22,0.66 -0.42,1.14 -0.58,1.46 -0.17,0.32 -0.39,0.58 -0.65,0.79 -0.25,0.2 -0.6,0.29 -1.04,0.29 v 0.85 h 4.88 v -1.15 l -2.02,0.1 c 0.26,-0.62 0.48,-1.22 0.65,-1.79 0.34,-1.15 0.65,-2.08 0.92,-2.79 l 6.77,-0.17 0.92,2.46 c 0.17,0.49 0.25,0.9 0.25,1.23 0,0.81 -0.52,1.22 -1.54,1.25 v 0.85 h 5.98 v -1.15 l -1.77,0.1 z m -10.2,-5.71 0.44,-1.27 1.4,-3.96 1.1,-2.94 h 0.04 l 1.19,3.19 1.83,4.98 z"
         id="path42" />
    </g>
    <g
       id="g64"
       transform="translate(-223.6351,-320.93089)">
      <path
         class="cls-1"
         d="m 316.87,141.52 c 0.28,0 0.48,-0.08 0.62,-0.25 0.15,-0.17 0.23,-0.39 0.23,-0.67 0,-0.28 -0.08,-0.52 -0.23,-0.69 -0.14,-0.17 -0.35,-0.25 -0.62,-0.25 -0.27,0 -0.49,0.08 -0.65,0.25 -0.16,0.16 -0.23,0.39 -0.23,0.69 0,0.3 0.07,0.52 0.23,0.69 0.17,0.16 0.38,0.23 0.65,0.23 z"
         id="path43" />
      <path
         class="cls-1"
         d="m 319.08,147.77 h -5.52 c -0.45,0 -0.8,-0.17 -1.06,-0.52 -0.27,-0.34 -0.4,-0.8 -0.4,-1.35 0,-0.73 0.07,-1.47 0.23,-2.21 h -1.23 c -0.11,0.31 -0.2,0.68 -0.27,1.12 -0.07,0.45 -0.1,0.84 -0.1,1.19 0,0.92 0.26,1.65 0.77,2.19 0.51,0.53 1.21,0.79 2.1,0.79 h 6.77 v -7.46 h -1.29 z"
         id="path44" />
      <path
         class="cls-1"
         d="m 314.21,141.52 c 0.26,0 0.47,-0.07 0.62,-0.23 0.15,-0.17 0.23,-0.4 0.23,-0.69 0,-0.29 -0.08,-0.53 -0.23,-0.69 -0.16,-0.17 -0.36,-0.25 -0.62,-0.25 -0.24,0 -0.44,0.08 -0.6,0.23 -0.17,0.14 -0.25,0.38 -0.25,0.71 0,0.33 0.08,0.56 0.25,0.71 0.17,0.14 0.36,0.21 0.6,0.21 z"
         id="path45" />
      <path
         class="cls-1"
         d="m 348.55,147.04 c -0.35,-0.5 -0.52,-1.15 -0.52,-1.94 0,-1.69 0.73,-2.54 2.19,-2.54 0.55,0 1.15,0.14 1.79,0.4 l 0.42,-1.15 c -0.24,-0.12 -0.54,-0.23 -0.92,-0.31 -0.38,-0.08 -0.79,-0.12 -1.23,-0.12 -1.11,0 -2,0.33 -2.67,0.98 -0.66,0.64 -0.98,1.54 -0.98,2.69 0,0.58 0.09,1.12 0.29,1.6 0.19,0.49 0.46,0.86 0.79,1.12 h -4.23 v -2.5 c 0,-1.34 -0.3,-2.33 -0.9,-2.96 -0.6,-0.62 -1.47,-0.94 -2.62,-0.94 -0.92,0 -1.74,0.29 -2.46,0.88 -0.72,0.57 -1.33,1.43 -1.81,2.58 v -7.54 h -1.31 v 10.48 h -3.71 v -10.48 h -1.38 v 10.48 h -2.04 l -1.98,-8.4 h -1.44 l 2,8.4 h -3.46 v 1.21 h 30.28 v -1.21 h -2.75 c -0.56,0 -1.01,-0.24 -1.35,-0.73 z m -6.38,0.73 h -6.48 v -1.25 c 1.08,-2.62 2.41,-3.94 3.98,-3.94 0.83,0 1.46,0.22 1.88,0.67 0.42,0.45 0.62,1.14 0.62,2.08 z"
         id="path46" />
      <path
         class="cls-1"
         d="m 365.71,141.52 c 0.28,0 0.48,-0.08 0.62,-0.25 0.15,-0.17 0.23,-0.39 0.23,-0.67 0,-0.28 -0.08,-0.52 -0.23,-0.69 -0.14,-0.17 -0.35,-0.25 -0.62,-0.25 -0.27,0 -0.49,0.08 -0.65,0.25 -0.16,0.16 -0.23,0.39 -0.23,0.69 0,0.3 0.07,0.52 0.23,0.69 0.17,0.16 0.38,0.23 0.65,0.23 z"
         id="path47" />
      <path
         class="cls-1"
         d="m 367.92,147.77 h -5.52 c -0.45,0 -0.8,-0.17 -1.06,-0.52 -0.27,-0.34 -0.4,-0.8 -0.4,-1.35 0,-0.73 0.07,-1.47 0.23,-2.21 h -1.23 c -0.11,0.31 -0.2,0.68 -0.27,1.12 -0.07,0.45 -0.1,0.84 -0.1,1.19 0,0.92 0.26,1.65 0.77,2.19 0.51,0.53 1.21,0.79 2.1,0.79 h 6.77 v -7.46 h -1.29 z"
         id="path48" />
      <path
         class="cls-1"
         d="m 363.05,141.52 c 0.26,0 0.47,-0.07 0.62,-0.23 0.15,-0.17 0.23,-0.4 0.23,-0.69 0,-0.29 -0.08,-0.53 -0.23,-0.69 -0.16,-0.17 -0.36,-0.25 -0.62,-0.25 -0.24,0 -0.44,0.08 -0.6,0.23 -0.17,0.14 -0.25,0.38 -0.25,0.71 0,0.33 0.08,0.56 0.25,0.71 0.17,0.14 0.36,0.21 0.6,0.21 z"
         id="path49" />
      <path
         class="cls-1"
         d="m 380.84,150.2 c -0.24,0 -0.44,0.07 -0.6,0.21 -0.17,0.15 -0.25,0.39 -0.25,0.71 0,0.32 0.08,0.57 0.25,0.71 0.17,0.15 0.36,0.23 0.6,0.23 0.26,0 0.47,-0.08 0.62,-0.25 0.15,-0.16 0.23,-0.39 0.23,-0.69 0,-0.3 -0.08,-0.52 -0.23,-0.69 -0.16,-0.16 -0.36,-0.23 -0.62,-0.23 z"
         id="path50" />
      <path
         class="cls-1"
         d="m 383.51,150.2 c -0.28,0 -0.49,0.07 -0.65,0.23 -0.16,0.17 -0.23,0.4 -0.23,0.69 0,0.29 0.07,0.53 0.23,0.69 0.17,0.17 0.38,0.25 0.65,0.25 0.27,0 0.48,-0.08 0.62,-0.25 0.15,-0.17 0.23,-0.4 0.23,-0.69 0,-0.29 -0.08,-0.5 -0.23,-0.67 -0.14,-0.17 -0.35,-0.25 -0.62,-0.25 z"
         id="path51" />
      <path
         class="cls-1"
         d="m 387.61,150.2 c -0.27,0 -0.47,0.07 -0.62,0.23 -0.16,0.17 -0.23,0.4 -0.23,0.69 0,0.29 0.07,0.53 0.23,0.69 0.15,0.17 0.36,0.25 0.62,0.25 0.26,0 0.48,-0.08 0.62,-0.25 0.15,-0.17 0.23,-0.4 0.23,-0.69 0,-0.29 -0.08,-0.5 -0.23,-0.67 -0.14,-0.17 -0.35,-0.25 -0.62,-0.25 z"
         id="path52" />
      <path
         class="cls-1"
         d="m 388.36,141.52 h -1.35 v 6.25 h -4.18 v -6.25 h -1.38 v 6.25 h -3.61 v -6.25 h -2 c -1.28,0 -2.31,0.36 -3.08,1.08 -0.77,0.71 -1.15,1.67 -1.15,2.88 0,1.14 0.3,2.01 0.9,2.6 0.59,0.6 1.44,0.9 2.54,0.9 h 1.5 v 0.44 c 0,0.62 -0.2,1.12 -0.6,1.5 -0.39,0.38 -0.93,0.56 -1.62,0.56 -0.42,0 -0.81,-0.06 -1.17,-0.19 -0.35,-0.11 -0.69,-0.26 -1.02,-0.44 l -0.6,1.02 c 0.8,0.53 1.73,0.79 2.77,0.79 1.12,0 1.99,-0.29 2.6,-0.88 0.62,-0.58 0.94,-1.4 0.94,-2.44 v -0.38 h 10.52 v -7.46 z m -11.81,6.25 h -1.46 c -0.71,0 -1.24,-0.18 -1.58,-0.54 -0.35,-0.38 -0.52,-0.96 -0.52,-1.77 0,-0.86 0.25,-1.53 0.75,-2.02 0.51,-0.48 1.23,-0.73 2.15,-0.73 h 0.67 v 5.06 z"
         id="path53" />
      <path
         class="cls-1"
         d="m 391.9,142.6 c -0.77,0.71 -1.15,1.67 -1.15,2.88 0,1.14 0.3,2.01 0.9,2.6 0.59,0.6 1.44,0.9 2.54,0.9 h 1.5 v 0.44 c 0,0.62 -0.2,1.12 -0.6,1.5 -0.39,0.38 -0.93,0.56 -1.62,0.56 -0.42,0 -0.81,-0.06 -1.17,-0.19 -0.35,-0.11 -0.69,-0.26 -1.02,-0.44 l -0.6,1.02 c 0.8,0.53 1.73,0.79 2.77,0.79 1.12,0 1.99,-0.29 2.6,-0.88 0.62,-0.58 0.94,-1.4 0.94,-2.44 v -7.83 h -2 c -1.28,0 -2.31,0.36 -3.08,1.08 z m 3.79,0.1 v 5.06 h -1.46 c -0.71,0 -1.24,-0.18 -1.58,-0.54 -0.35,-0.38 -0.52,-0.96 -0.52,-1.77 0,-0.86 0.25,-1.53 0.75,-2.02 0.51,-0.48 1.23,-0.73 2.15,-0.73 h 0.67 z"
         id="path54" />
      <path
         class="cls-1"
         d="m 410.66,141.52 c 0.28,0 0.48,-0.08 0.62,-0.25 0.15,-0.17 0.23,-0.39 0.23,-0.67 0,-0.28 -0.08,-0.52 -0.23,-0.69 -0.14,-0.17 -0.35,-0.25 -0.62,-0.25 -0.27,0 -0.49,0.08 -0.65,0.25 -0.16,0.16 -0.23,0.39 -0.23,0.69 0,0.3 0.07,0.52 0.23,0.69 0.17,0.16 0.38,0.23 0.65,0.23 z"
         id="path55" />
      <path
         class="cls-1"
         d="m 408,141.52 c 0.26,0 0.47,-0.07 0.62,-0.23 0.15,-0.17 0.23,-0.4 0.23,-0.69 0,-0.29 -0.08,-0.53 -0.23,-0.69 -0.16,-0.17 -0.36,-0.25 -0.62,-0.25 -0.24,0 -0.44,0.08 -0.6,0.23 -0.17,0.14 -0.25,0.38 -0.25,0.71 0,0.33 0.08,0.56 0.25,0.71 0.17,0.14 0.36,0.21 0.6,0.21 z"
         id="path56" />
      <path
         class="cls-1"
         d="m 412.87,147.77 h -5.52 c -0.45,0 -0.8,-0.17 -1.06,-0.52 -0.27,-0.34 -0.4,-0.8 -0.4,-1.35 0,-0.73 0.07,-1.47 0.23,-2.21 h -1.23 c -0.11,0.31 -0.2,0.68 -0.27,1.12 -0.07,0.45 -0.1,0.84 -0.1,1.19 0,0.92 0.26,1.65 0.77,2.19 0.51,0.53 1.21,0.79 2.1,0.79 h 6.77 v -7.46 h -1.29 z"
         id="path57" />
      <path
         class="cls-1"
         d="m 437.35,150.2 c -0.28,0 -0.49,0.07 -0.65,0.23 -0.16,0.17 -0.23,0.4 -0.23,0.69 0,0.29 0.07,0.53 0.23,0.69 0.17,0.17 0.38,0.25 0.65,0.25 0.27,0 0.48,-0.08 0.62,-0.25 0.15,-0.17 0.23,-0.4 0.23,-0.69 0,-0.29 -0.08,-0.5 -0.23,-0.67 -0.14,-0.17 -0.35,-0.25 -0.62,-0.25 z"
         id="path58" />
      <path
         class="cls-1"
         d="m 434.69,150.2 c -0.24,0 -0.44,0.07 -0.6,0.21 -0.17,0.15 -0.25,0.39 -0.25,0.71 0,0.32 0.08,0.57 0.25,0.71 0.17,0.15 0.36,0.23 0.6,0.23 0.26,0 0.47,-0.08 0.62,-0.25 0.15,-0.16 0.23,-0.39 0.23,-0.69 0,-0.3 -0.08,-0.52 -0.23,-0.69 -0.16,-0.16 -0.36,-0.23 -0.62,-0.23 z"
         id="path59" />
      <path
         class="cls-1"
         d="m 440.85,147.77 h -4.18 v -6.25 h -1.38 v 6.25 h -4.34 v -3.12 c 0,-1.64 -0.46,-2.91 -1.38,-3.81 -0.91,-0.9 -2.19,-1.35 -3.85,-1.35 -1.17,0 -2.23,0.16 -3.19,0.48 l 0.35,1.19 c 0.89,-0.3 1.83,-0.46 2.83,-0.46 1.34,0 2.33,0.33 2.96,1 0.64,0.66 0.96,1.68 0.96,3.08 v 3 h -2 v -2.02 c 0,-2.21 -1,-3.31 -3,-3.31 -0.56,0 -1.07,0.14 -1.54,0.4 -0.47,0.27 -0.85,0.64 -1.12,1.1 -0.28,0.47 -0.42,1.02 -0.42,1.65 0,0.47 0.09,0.91 0.29,1.31 0.19,0.39 0.46,0.68 0.79,0.88 h -4.27 v -10.48 h -1.35 V 149 h 25.18 v -11.69 h -1.35 v 10.48 z m -14.52,0 h -1.27 c -0.62,0 -1.14,-0.19 -1.54,-0.58 -0.39,-0.39 -0.58,-0.91 -0.58,-1.56 0,-0.58 0.15,-1.03 0.44,-1.35 0.29,-0.32 0.69,-0.48 1.21,-0.48 0.58,0 1.02,0.18 1.31,0.54 0.29,0.35 0.44,0.9 0.44,1.65 v 1.79 z"
         id="path60" />
      <path
         class="cls-1"
         d="m 456.37,139.14 c 0,0.29 0.07,0.52 0.23,0.69 0.15,0.16 0.36,0.23 0.62,0.23 0.26,0 0.49,-0.08 0.65,-0.25 0.15,-0.17 0.23,-0.39 0.23,-0.67 0,-0.28 -0.08,-0.52 -0.23,-0.69 -0.16,-0.17 -0.37,-0.25 -0.65,-0.25 -0.28,0 -0.47,0.08 -0.62,0.25 -0.16,0.16 -0.23,0.39 -0.23,0.69 z"
         id="path61" />
      <path
         class="cls-1"
         d="m 455.89,137.97 c 0.21,0 0.39,-0.06 0.54,-0.19 0.17,-0.14 0.25,-0.35 0.25,-0.65 0,-0.3 -0.08,-0.51 -0.25,-0.65 -0.16,-0.14 -0.33,-0.21 -0.54,-0.21 -0.24,0 -0.43,0.07 -0.58,0.21 -0.14,0.12 -0.21,0.34 -0.21,0.65 0,0.31 0.07,0.51 0.21,0.65 0.15,0.12 0.34,0.19 0.58,0.19 z"
         id="path62" />
      <path
         class="cls-1"
         d="m 459.5,141.52 v 6.25 h -0.96 c -0.46,0 -0.84,-0.08 -1.15,-0.25 -0.31,-0.18 -0.58,-0.49 -0.83,-0.94 v -3.88 h -1.29 v 3.29 c 0,0.53 -0.14,0.96 -0.42,1.29 -0.28,0.32 -0.67,0.48 -1.17,0.48 h -1.65 v -5.06 h -1.31 v 5.06 h -4.09 v -10.48 h -1.35 v 11.69 h 8.54 c 0.51,0 0.96,-0.09 1.33,-0.29 0.38,-0.21 0.68,-0.47 0.92,-0.79 0.4,0.42 0.8,0.7 1.19,0.85 0.39,0.16 0.81,0.23 1.27,0.23 h 2.25 v -7.46 h -1.29 z"
         id="path63" />
      <path
         class="cls-1"
         d="m 454.58,140.06 c 0.26,0 0.47,-0.08 0.62,-0.25 0.15,-0.17 0.23,-0.39 0.23,-0.67 0,-0.28 -0.08,-0.52 -0.23,-0.69 -0.16,-0.17 -0.36,-0.25 -0.62,-0.25 -0.26,0 -0.46,0.08 -0.62,0.23 -0.17,0.14 -0.25,0.38 -0.25,0.71 0,0.33 0.08,0.56 0.25,0.71 0.17,0.14 0.38,0.21 0.62,0.21 z"
         id="path64" />
    </g>
  </g>
</svg>
